<svg width="135" height="17" viewBox="0 0 135 17" fill="none" xmlns="http://www.w3.org/2000/svg">
<path d="M2.61133 5.60352V13H0.957031V5.60352H2.61133ZM0.847656 3.66211C0.847656 3.41146 0.929688 3.2041 1.09375 3.04004C1.26237 2.87142 1.49479 2.78711 1.79102 2.78711C2.08268 2.78711 2.31283 2.87142 2.48145 3.04004C2.65007 3.2041 2.73438 3.41146 2.73438 3.66211C2.73438 3.9082 2.65007 4.11328 2.48145 4.27734C2.31283 4.44141 2.08268 4.52344 1.79102 4.52344C1.49479 4.52344 1.26237 4.44141 1.09375 4.27734C0.929688 4.11328 0.847656 3.9082 0.847656 3.66211ZM6.3298 7.18262V13H4.68234V5.60352H6.2341L6.3298 7.18262ZM6.03586 9.02832L5.50266 9.02148C5.50721 8.4974 5.58013 8.0166 5.72141 7.5791C5.86724 7.1416 6.06776 6.76562 6.32297 6.45117C6.58273 6.13672 6.89263 5.89518 7.25266 5.72656C7.61268 5.55339 8.01372 5.4668 8.45578 5.4668C8.81125 5.4668 9.13254 5.51693 9.41965 5.61719C9.71132 5.71289 9.95969 5.87012 10.1648 6.08887C10.3744 6.30762 10.5339 6.59245 10.6433 6.94336C10.7527 7.28971 10.8073 7.71582 10.8073 8.22168V13H9.15305V8.21484C9.15305 7.85938 9.10064 7.5791 8.99582 7.37402C8.89556 7.16439 8.74745 7.01628 8.55148 6.92969C8.36008 6.83854 8.12082 6.79297 7.83371 6.79297C7.55116 6.79297 7.29823 6.85221 7.07492 6.9707C6.85161 7.08919 6.66249 7.25098 6.50754 7.45605C6.35715 7.66113 6.24094 7.89811 6.15891 8.16699C6.07687 8.43587 6.03586 8.72298 6.03586 9.02832ZM14.9975 13H13.35V4.89258C13.35 4.34115 13.4526 3.87858 13.6577 3.50488C13.8673 3.12663 14.1658 2.8418 14.5532 2.65039C14.9405 2.45443 15.3985 2.35645 15.9272 2.35645C16.0913 2.35645 16.253 2.36784 16.4125 2.39062C16.572 2.40885 16.727 2.43848 16.8774 2.47949L16.8364 3.75098C16.7452 3.72819 16.645 3.71224 16.5356 3.70312C16.4308 3.69401 16.3168 3.68945 16.1938 3.68945C15.9431 3.68945 15.7267 3.7373 15.5444 3.83301C15.3666 3.92415 15.2299 4.05859 15.1342 4.23633C15.0431 4.41406 14.9975 4.63281 14.9975 4.89258V13ZM16.5219 5.60352V6.80664H12.2153V5.60352H16.5219ZM17.6838 9.38379V9.22656C17.6838 8.69336 17.7612 8.19889 17.9162 7.74316C18.0711 7.28288 18.2944 6.88411 18.5861 6.54688C18.8823 6.20508 19.2423 5.94076 19.6662 5.75391C20.0946 5.5625 20.5776 5.4668 21.1154 5.4668C21.6577 5.4668 22.1408 5.5625 22.5646 5.75391C22.993 5.94076 23.3553 6.20508 23.6515 6.54688C23.9477 6.88411 24.1733 7.28288 24.3283 7.74316C24.4832 8.19889 24.5607 8.69336 24.5607 9.22656V9.38379C24.5607 9.91699 24.4832 10.4115 24.3283 10.8672C24.1733 11.3229 23.9477 11.7217 23.6515 12.0635C23.3553 12.4007 22.9953 12.665 22.5714 12.8564C22.1476 13.0433 21.6668 13.1367 21.1291 13.1367C20.5867 13.1367 20.1014 13.0433 19.673 12.8564C19.2492 12.665 18.8892 12.4007 18.5929 12.0635C18.2967 11.7217 18.0711 11.3229 17.9162 10.8672C17.7612 10.4115 17.6838 9.91699 17.6838 9.38379ZM19.3312 9.22656V9.38379C19.3312 9.71647 19.3654 10.0309 19.4338 10.3271C19.5021 10.6234 19.6092 10.8831 19.755 11.1064C19.9009 11.3298 20.0877 11.5052 20.3156 11.6328C20.5435 11.7604 20.8146 11.8242 21.1291 11.8242C21.4344 11.8242 21.6987 11.7604 21.922 11.6328C22.1499 11.5052 22.3367 11.3298 22.4826 11.1064C22.6284 10.8831 22.7355 10.6234 22.8039 10.3271C22.8768 10.0309 22.9132 9.71647 22.9132 9.38379V9.22656C22.9132 8.89844 22.8768 8.58854 22.8039 8.29688C22.7355 8.00065 22.6261 7.73861 22.4757 7.51074C22.3299 7.28288 22.1431 7.10514 21.9152 6.97754C21.6919 6.84538 21.4253 6.7793 21.1154 6.7793C20.8055 6.7793 20.5366 6.84538 20.3088 6.97754C20.0854 7.10514 19.9009 7.28288 19.755 7.51074C19.6092 7.73861 19.5021 8.00065 19.4338 8.29688C19.3654 8.58854 19.3312 8.89844 19.3312 9.22656ZM37.2889 9.44531C37.2707 9.88737 37.2046 10.3271 37.0907 10.7646C36.9768 11.2021 36.8036 11.6009 36.5712 11.9609C36.3433 12.321 36.0494 12.6081 35.6893 12.8223C35.3293 13.0365 34.8964 13.1436 34.3905 13.1436C34.0852 13.1436 33.814 13.0911 33.577 12.9863C33.3401 12.877 33.1418 12.722 32.9823 12.5215C32.8274 12.321 32.7157 12.0794 32.6473 11.7969C32.579 11.5098 32.5608 11.1908 32.5927 10.8398L32.9413 6.96387H34.1376L33.7958 10.8398C33.7684 11.1178 33.773 11.3457 33.8095 11.5234C33.8505 11.7012 33.912 11.8379 33.994 11.9336C34.0761 12.0293 34.1695 12.0954 34.2743 12.1318C34.3791 12.1683 34.4839 12.1865 34.5888 12.1865C34.8348 12.1865 35.0559 12.1182 35.2518 11.9814C35.4478 11.8402 35.6141 11.6465 35.7509 11.4004C35.8921 11.1497 36.0015 10.8604 36.079 10.5322C36.161 10.2041 36.2089 9.84863 36.2225 9.46582C36.2544 8.8278 36.2248 8.23991 36.1337 7.70215C36.0425 7.15983 35.8876 6.67676 35.6688 6.25293C35.4546 5.8291 35.1744 5.47135 34.828 5.17969C34.4862 4.88346 34.0761 4.65788 33.5975 4.50293C33.119 4.34798 32.5721 4.27051 31.9569 4.27051C31.3918 4.27051 30.87 4.3571 30.3915 4.53027C29.913 4.70345 29.4846 4.9541 29.1063 5.28223C28.7281 5.60579 28.4022 5.99544 28.1288 6.45117C27.8599 6.90234 27.648 7.41048 27.493 7.97559C27.3427 8.53613 27.2538 9.1377 27.2264 9.78027C27.1945 10.4548 27.2287 11.07 27.329 11.626C27.4338 12.182 27.6024 12.6742 27.8348 13.1025C28.0673 13.5309 28.3589 13.891 28.7098 14.1826C29.0653 14.4788 29.4755 14.7021 29.9403 14.8525C30.4097 15.0029 30.9292 15.0781 31.4989 15.0781C31.8999 15.0781 32.3055 15.0326 32.7157 14.9414C33.1304 14.8503 33.4791 14.7295 33.7616 14.5791L34.0214 15.4883C33.7024 15.6934 33.3036 15.846 32.8251 15.9463C32.3466 16.0465 31.8954 16.0967 31.4716 16.0967C30.7652 16.0967 30.118 16.0055 29.5302 15.8232C28.9468 15.641 28.4296 15.3721 27.9784 15.0166C27.5318 14.6657 27.1604 14.235 26.8641 13.7246C26.5679 13.2142 26.3492 12.6286 26.2079 11.9678C26.0666 11.307 26.0119 10.5778 26.0438 9.78027C26.0757 9.03288 26.1897 8.33105 26.3856 7.6748C26.5816 7.014 26.8505 6.41471 27.1923 5.87695C27.5386 5.33919 27.9488 4.87663 28.4227 4.48926C28.9013 4.09733 29.439 3.79655 30.036 3.58691C30.633 3.37728 31.2824 3.27246 31.9843 3.27246C32.6952 3.27246 33.3378 3.36589 33.912 3.55273C34.4862 3.73958 34.9898 4.01074 35.4227 4.36621C35.8602 4.72168 36.2225 5.15234 36.5096 5.6582C36.7968 6.16406 37.0064 6.736 37.1386 7.37402C37.2707 8.00749 37.3208 8.69792 37.2889 9.44531ZM30.3368 10.0947C30.3049 10.4046 30.3026 10.6803 30.33 10.9219C30.3619 11.1634 30.4188 11.3662 30.5009 11.5303C30.5874 11.6943 30.6991 11.8197 30.8358 11.9062C30.9725 11.9928 31.132 12.0361 31.3143 12.0361C31.4283 12.0361 31.549 12.0088 31.6766 11.9541C31.8088 11.8949 31.9387 11.8014 32.0663 11.6738C32.1939 11.5462 32.3147 11.3776 32.4286 11.168C32.5425 10.9538 32.6382 10.6895 32.7157 10.375L33.2352 10.9697C33.1304 11.3252 32.9983 11.6396 32.8388 11.9131C32.6792 12.182 32.4992 12.4076 32.2987 12.5898C32.0982 12.7676 31.8817 12.9043 31.6493 13C31.4169 13.0911 31.1753 13.1367 30.9247 13.1367C30.592 13.1367 30.2958 13.0638 30.036 12.918C29.7808 12.7721 29.5712 12.5671 29.4071 12.3027C29.243 12.0339 29.1268 11.7148 29.0585 11.3457C28.9901 10.972 28.9764 10.555 29.0175 10.0947C29.063 9.62533 29.1496 9.1901 29.2772 8.78906C29.4094 8.38802 29.5712 8.03027 29.7626 7.71582C29.9585 7.40137 30.1796 7.13477 30.4257 6.91602C30.6718 6.69271 30.9361 6.52409 31.2186 6.41016C31.5057 6.29167 31.7997 6.23242 32.1005 6.23242C32.6154 6.23242 33.0188 6.30534 33.3104 6.45117C33.6021 6.59701 33.8778 6.7679 34.1376 6.96387L33.495 7.78418C33.3628 7.66113 33.1897 7.54492 32.9755 7.43555C32.7658 7.32617 32.5152 7.27148 32.2235 7.27148C31.9638 7.27148 31.7268 7.33073 31.5126 7.44922C31.3029 7.56771 31.1184 7.74772 30.9589 7.98926C30.7994 8.22624 30.6649 8.52018 30.5555 8.87109C30.4507 9.22201 30.3778 9.62988 30.3368 10.0947ZM43.5777 11.4688V2.5H45.232V13H43.735L43.5777 11.4688ZM38.7652 9.38379V9.24023C38.7652 8.67969 38.8313 8.16927 38.9635 7.70898C39.0956 7.24414 39.287 6.84538 39.5377 6.5127C39.7883 6.17546 40.0937 5.91797 40.4537 5.74023C40.8137 5.55794 41.2193 5.4668 41.6705 5.4668C42.1171 5.4668 42.5091 5.55339 42.8463 5.72656C43.1835 5.89974 43.4706 6.14811 43.7076 6.47168C43.9446 6.79069 44.1337 7.1735 44.275 7.62012C44.4163 8.06217 44.5165 8.55436 44.5758 9.09668V9.55469C44.5165 10.0833 44.4163 10.5664 44.275 11.0039C44.1337 11.4414 43.9446 11.8197 43.7076 12.1387C43.4706 12.4577 43.1813 12.7038 42.8395 12.877C42.5022 13.0501 42.108 13.1367 41.6568 13.1367C41.2102 13.1367 40.8069 13.0433 40.4469 12.8564C40.0914 12.6696 39.7883 12.4076 39.5377 12.0703C39.287 11.7331 39.0956 11.3366 38.9635 10.8809C38.8313 10.4206 38.7652 9.92155 38.7652 9.38379ZM40.4127 9.24023V9.38379C40.4127 9.72103 40.4423 10.0355 40.5016 10.3271C40.5654 10.6188 40.6633 10.8763 40.7955 11.0996C40.9277 11.3184 41.0986 11.4915 41.3082 11.6191C41.5224 11.7422 41.7776 11.8037 42.0738 11.8037C42.4475 11.8037 42.7551 11.7217 42.9967 11.5576C43.2382 11.3936 43.4273 11.1725 43.5641 10.8945C43.7053 10.612 43.801 10.2975 43.8512 9.95117V8.71387C43.8238 8.44499 43.7669 8.19434 43.6803 7.96191C43.5982 7.72949 43.4866 7.52669 43.3453 7.35352C43.204 7.17578 43.0286 7.03906 42.8189 6.94336C42.6139 6.8431 42.3701 6.79297 42.0875 6.79297C41.7867 6.79297 41.5315 6.85677 41.3219 6.98438C41.1122 7.11198 40.9391 7.28743 40.8023 7.51074C40.6702 7.73405 40.5722 7.99382 40.5084 8.29004C40.4446 8.58626 40.4127 8.90299 40.4127 9.24023ZM50.4954 13.1367C49.9486 13.1367 49.4541 13.0479 49.012 12.8701C48.5745 12.6878 48.2008 12.4349 47.8909 12.1113C47.5856 11.7878 47.3509 11.4072 47.1868 10.9697C47.0228 10.5322 46.9407 10.0605 46.9407 9.55469V9.28125C46.9407 8.70247 47.0251 8.17839 47.1937 7.70898C47.3623 7.23958 47.597 6.83854 47.8978 6.50586C48.1986 6.16862 48.554 5.91113 48.9642 5.7334C49.3743 5.55566 49.8187 5.4668 50.2972 5.4668C50.8258 5.4668 51.2884 5.55566 51.6849 5.7334C52.0814 5.91113 52.4095 6.16178 52.6693 6.48535C52.9336 6.80436 53.1295 7.1849 53.2571 7.62695C53.3893 8.06901 53.4554 8.55664 53.4554 9.08984V9.79395H47.7405V8.61133H51.8284V8.48145C51.8193 8.18522 51.7601 7.90723 51.6507 7.64746C51.5459 7.3877 51.3841 7.17806 51.1654 7.01855C50.9466 6.85905 50.6549 6.7793 50.2904 6.7793C50.0169 6.7793 49.7731 6.83854 49.5589 6.95703C49.3493 7.07096 49.1738 7.2373 49.0325 7.45605C48.8913 7.6748 48.7819 7.93913 48.7044 8.24902C48.6315 8.55436 48.595 8.89844 48.595 9.28125V9.55469C48.595 9.87826 48.6383 10.179 48.7249 10.457C48.8161 10.7305 48.9482 10.9697 49.1214 11.1748C49.2946 11.3799 49.5042 11.5417 49.7503 11.6602C49.9964 11.7741 50.2767 11.8311 50.5911 11.8311C50.9876 11.8311 51.3408 11.7513 51.6507 11.5918C51.9606 11.4323 52.2295 11.2067 52.4573 10.915L53.3255 11.7559C53.166 11.9883 52.9586 12.2116 52.7034 12.4258C52.4482 12.6354 52.1361 12.8063 51.7669 12.9385C51.4023 13.0706 50.9785 13.1367 50.4954 13.1367ZM57.3311 11.6943L59.1426 5.60352H60.8516L58.2813 13H57.2149L57.3311 11.6943ZM55.9434 5.60352L57.7891 11.7217L57.878 13H56.8116L54.2276 5.60352H55.9434ZM66.2996 10.9971C66.2996 10.833 66.2586 10.6849 66.1765 10.5527C66.0945 10.416 65.9373 10.293 65.7048 10.1836C65.477 10.0742 65.1397 9.97396 64.6931 9.88281C64.3012 9.79622 63.9412 9.69368 63.613 9.5752C63.2895 9.45215 63.0115 9.30404 62.7791 9.13086C62.5466 8.95768 62.3666 8.7526 62.239 8.51562C62.1114 8.27865 62.0476 8.00521 62.0476 7.69531C62.0476 7.39453 62.1137 7.1097 62.2459 6.84082C62.378 6.57194 62.5672 6.33496 62.8132 6.12988C63.0593 5.9248 63.3578 5.76302 63.7088 5.64453C64.0642 5.52604 64.4607 5.4668 64.8982 5.4668C65.518 5.4668 66.0489 5.57161 66.491 5.78125C66.9376 5.98633 67.2794 6.2666 67.5164 6.62207C67.7533 6.97298 67.8718 7.36947 67.8718 7.81152H66.2244C66.2244 7.61556 66.1742 7.43327 66.074 7.26465C65.9783 7.09147 65.8324 6.95247 65.6365 6.84766C65.4405 6.73828 65.1944 6.68359 64.8982 6.68359C64.6157 6.68359 64.381 6.72917 64.1941 6.82031C64.0118 6.9069 63.8751 7.02083 63.7839 7.16211C63.6974 7.30339 63.6541 7.45833 63.6541 7.62695C63.6541 7.75 63.6769 7.86165 63.7224 7.96191C63.7726 8.05762 63.8546 8.14648 63.9685 8.22852C64.0824 8.30599 64.2374 8.37891 64.4334 8.44727C64.6339 8.51562 64.8845 8.58171 65.1853 8.64551C65.7504 8.764 66.2358 8.91667 66.6414 9.10352C67.0515 9.28581 67.366 9.52279 67.5847 9.81445C67.8035 10.1016 67.9129 10.4661 67.9129 10.9082C67.9129 11.2363 67.8422 11.5371 67.7009 11.8105C67.5642 12.0794 67.3637 12.3141 67.0994 12.5146C66.8351 12.7106 66.5183 12.8633 66.1492 12.9727C65.7846 13.082 65.3744 13.1367 64.9187 13.1367C64.2488 13.1367 63.6814 13.0182 63.2166 12.7812C62.7517 12.5397 62.3985 12.2321 62.157 11.8584C61.92 11.4801 61.8015 11.0882 61.8015 10.6826H63.3943C63.4125 10.988 63.4968 11.2318 63.6472 11.4141C63.8022 11.5918 63.9936 11.7217 64.2214 11.8037C64.4539 11.8812 64.6931 11.9199 64.9392 11.9199C65.2354 11.9199 65.4838 11.8812 65.6843 11.8037C65.8849 11.7217 66.0375 11.6123 66.1423 11.4756C66.2472 11.3343 66.2996 11.1748 66.2996 10.9971ZM73.0259 5.60352V6.80664H68.8559V5.60352H73.0259ZM70.0591 3.79199H71.7065V10.9561C71.7065 11.1839 71.7384 11.3594 71.8022 11.4824C71.8706 11.6009 71.964 11.6807 72.0825 11.7217C72.201 11.7627 72.34 11.7832 72.4995 11.7832C72.6134 11.7832 72.7228 11.7764 72.8276 11.7627C72.9324 11.749 73.0167 11.7354 73.0805 11.7217L73.0874 12.9795C72.9507 13.0205 72.7912 13.057 72.6089 13.0889C72.4311 13.1208 72.2261 13.1367 71.9936 13.1367C71.6154 13.1367 71.2804 13.0706 70.9887 12.9385C70.6971 12.8018 70.4692 12.5807 70.3052 12.2754C70.1411 11.9701 70.0591 11.5645 70.0591 11.0586V3.79199ZM79.0275 11.2568V5.60352H80.6818V13H79.1232L79.0275 11.2568ZM79.26 9.71875L79.8137 9.70508C79.8137 10.2018 79.759 10.6598 79.6496 11.0791C79.5402 11.4938 79.3716 11.8561 79.1438 12.166C78.9159 12.4714 78.6242 12.7106 78.2688 12.8838C77.9133 13.0524 77.4872 13.1367 76.9904 13.1367C76.6304 13.1367 76.3 13.0843 75.9992 12.9795C75.6984 12.8747 75.4387 12.7129 75.2199 12.4941C75.0057 12.2754 74.8394 11.9906 74.7209 11.6396C74.6024 11.2887 74.5432 10.8695 74.5432 10.3818V5.60352H76.1906V10.3955C76.1906 10.6644 76.2225 10.89 76.2863 11.0723C76.3501 11.25 76.4367 11.3936 76.5461 11.5029C76.6555 11.6123 76.7831 11.6898 76.9289 11.7354C77.0747 11.7809 77.2297 11.8037 77.3938 11.8037C77.8632 11.8037 78.2323 11.7126 78.5012 11.5303C78.7746 11.3434 78.9683 11.0928 79.0822 10.7783C79.2007 10.4639 79.26 10.1107 79.26 9.71875ZM87.162 11.4688V2.5H88.8163V13H87.3193L87.162 11.4688ZM82.3495 9.38379V9.24023C82.3495 8.67969 82.4156 8.16927 82.5478 7.70898C82.6799 7.24414 82.8713 6.84538 83.122 6.5127C83.3726 6.17546 83.678 5.91797 84.038 5.74023C84.398 5.55794 84.8036 5.4668 85.2548 5.4668C85.7014 5.4668 86.0933 5.55339 86.4306 5.72656C86.7678 5.89974 87.0549 6.14811 87.2919 6.47168C87.5289 6.79069 87.718 7.1735 87.8593 7.62012C88.0006 8.06217 88.1008 8.55436 88.1601 9.09668V9.55469C88.1008 10.0833 88.0006 10.5664 87.8593 11.0039C87.718 11.4414 87.5289 11.8197 87.2919 12.1387C87.0549 12.4577 86.7655 12.7038 86.4238 12.877C86.0865 13.0501 85.6923 13.1367 85.2411 13.1367C84.7945 13.1367 84.3912 13.0433 84.0312 12.8564C83.6757 12.6696 83.3726 12.4076 83.122 12.0703C82.8713 11.7331 82.6799 11.3366 82.5478 10.8809C82.4156 10.4206 82.3495 9.92155 82.3495 9.38379ZM83.997 9.24023V9.38379C83.997 9.72103 84.0266 10.0355 84.0859 10.3271C84.1497 10.6188 84.2476 10.8763 84.3798 11.0996C84.512 11.3184 84.6829 11.4915 84.8925 11.6191C85.1067 11.7422 85.3619 11.8037 85.6581 11.8037C86.0318 11.8037 86.3394 11.7217 86.581 11.5576C86.8225 11.3936 87.0116 11.1725 87.1484 10.8945C87.2896 10.612 87.3853 10.2975 87.4355 9.95117V8.71387C87.4081 8.44499 87.3512 8.19434 87.2646 7.96191C87.1825 7.72949 87.0709 7.52669 86.9296 7.35352C86.7883 7.17578 86.6129 7.03906 86.4032 6.94336C86.1982 6.8431 85.9544 6.79297 85.6718 6.79297C85.371 6.79297 85.1158 6.85677 84.9062 6.98438C84.6965 7.11198 84.5234 7.28743 84.3866 7.51074C84.2545 7.73405 84.1565 7.99382 84.0927 8.29004C84.0289 8.58626 83.997 8.90299 83.997 9.24023ZM92.5827 5.60352V13H90.9284V5.60352H92.5827ZM90.819 3.66211C90.819 3.41146 90.901 3.2041 91.0651 3.04004C91.2337 2.87142 91.4661 2.78711 91.7623 2.78711C92.054 2.78711 92.2842 2.87142 92.4528 3.04004C92.6214 3.2041 92.7057 3.41146 92.7057 3.66211C92.7057 3.9082 92.6214 4.11328 92.4528 4.27734C92.2842 4.44141 92.054 4.52344 91.7623 4.52344C91.4661 4.52344 91.2337 4.44141 91.0651 4.27734C90.901 4.11328 90.819 3.9082 90.819 3.66211ZM94.3529 9.38379V9.22656C94.3529 8.69336 94.4304 8.19889 94.5853 7.74316C94.7403 7.28288 94.9636 6.88411 95.2552 6.54688C95.5515 6.20508 95.9115 5.94076 96.3353 5.75391C96.7637 5.5625 97.2468 5.4668 97.7845 5.4668C98.3268 5.4668 98.8099 5.5625 99.2337 5.75391C99.6621 5.94076 100.024 6.20508 100.321 6.54688C100.617 6.88411 100.842 7.28288 100.997 7.74316C101.152 8.19889 101.23 8.69336 101.23 9.22656V9.38379C101.23 9.91699 101.152 10.4115 100.997 10.8672C100.842 11.3229 100.617 11.7217 100.321 12.0635C100.024 12.4007 99.6644 12.665 99.2406 12.8564C98.8168 13.0433 98.336 13.1367 97.7982 13.1367C97.2559 13.1367 96.7705 13.0433 96.3421 12.8564C95.9183 12.665 95.5583 12.4007 95.2621 12.0635C94.9658 11.7217 94.7403 11.3229 94.5853 10.8672C94.4304 10.4115 94.3529 9.91699 94.3529 9.38379ZM96.0004 9.22656V9.38379C96.0004 9.71647 96.0345 10.0309 96.1029 10.3271C96.1712 10.6234 96.2783 10.8831 96.4242 11.1064C96.57 11.3298 96.7569 11.5052 96.9847 11.6328C97.2126 11.7604 97.4837 11.8242 97.7982 11.8242C98.1035 11.8242 98.3679 11.7604 98.5912 11.6328C98.819 11.5052 99.0059 11.3298 99.1517 11.1064C99.2976 10.8831 99.4046 10.6234 99.473 10.3271C99.5459 10.0309 99.5824 9.71647 99.5824 9.38379V9.22656C99.5824 8.89844 99.5459 8.58854 99.473 8.29688C99.4046 8.00065 99.2953 7.73861 99.1449 7.51074C98.999 7.28288 98.8122 7.10514 98.5843 6.97754C98.361 6.84538 98.0944 6.7793 97.7845 6.7793C97.4746 6.7793 97.2058 6.84538 96.9779 6.97754C96.7546 7.10514 96.57 7.28288 96.4242 7.51074C96.2783 7.73861 96.1712 8.00065 96.1029 8.29688C96.0345 8.58854 96.0004 8.89844 96.0004 9.22656ZM102.959 12.1797C102.959 11.9245 103.046 11.7103 103.219 11.5371C103.392 11.3594 103.627 11.2705 103.923 11.2705C104.224 11.2705 104.458 11.3594 104.627 11.5371C104.8 11.7103 104.887 11.9245 104.887 12.1797C104.887 12.4349 104.8 12.6491 104.627 12.8223C104.458 12.9954 104.224 13.082 103.923 13.082C103.627 13.082 103.392 12.9954 103.219 12.8223C103.046 12.6491 102.959 12.4349 102.959 12.1797ZM110.089 11.8242C110.358 11.8242 110.599 11.7718 110.813 11.667C111.032 11.5576 111.207 11.4072 111.34 11.2158C111.476 11.0244 111.552 10.8034 111.565 10.5527H113.117C113.108 11.0312 112.967 11.4665 112.693 11.8584C112.42 12.2503 112.057 12.5625 111.606 12.7949C111.155 13.0228 110.656 13.1367 110.109 13.1367C109.544 13.1367 109.052 13.041 108.633 12.8496C108.213 12.6536 107.865 12.3848 107.587 12.043C107.309 11.7012 107.099 11.307 106.958 10.8604C106.821 10.4137 106.753 9.93522 106.753 9.4248V9.18555C106.753 8.67513 106.821 8.19661 106.958 7.75C107.099 7.29883 107.309 6.90234 107.587 6.56055C107.865 6.21875 108.213 5.95215 108.633 5.76074C109.052 5.56478 109.542 5.4668 110.102 5.4668C110.695 5.4668 111.214 5.58529 111.661 5.82227C112.108 6.05469 112.458 6.38053 112.714 6.7998C112.973 7.21452 113.108 7.69759 113.117 8.24902H111.565C111.552 7.97559 111.483 7.72949 111.36 7.51074C111.242 7.28743 111.073 7.1097 110.854 6.97754C110.64 6.84538 110.383 6.7793 110.082 6.7793C109.749 6.7793 109.473 6.84766 109.255 6.98438C109.036 7.11654 108.865 7.29883 108.742 7.53125C108.619 7.75911 108.53 8.0166 108.475 8.30371C108.425 8.58626 108.4 8.88021 108.4 9.18555V9.4248C108.4 9.73014 108.425 10.0264 108.475 10.3135C108.526 10.6006 108.612 10.8581 108.735 11.0859C108.863 11.3092 109.036 11.4893 109.255 11.626C109.473 11.7581 109.751 11.8242 110.089 11.8242ZM114.347 9.38379V9.22656C114.347 8.69336 114.425 8.19889 114.58 7.74316C114.735 7.28288 114.958 6.88411 115.25 6.54688C115.546 6.20508 115.906 5.94076 116.33 5.75391C116.758 5.5625 117.241 5.4668 117.779 5.4668C118.321 5.4668 118.804 5.5625 119.228 5.75391C119.656 5.94076 120.019 6.20508 120.315 6.54688C120.611 6.88411 120.837 7.28288 120.992 7.74316C121.147 8.19889 121.224 8.69336 121.224 9.22656V9.38379C121.224 9.91699 121.147 10.4115 120.992 10.8672C120.837 11.3229 120.611 11.7217 120.315 12.0635C120.019 12.4007 119.659 12.665 119.235 12.8564C118.811 13.0433 118.33 13.1367 117.793 13.1367C117.25 13.1367 116.765 13.0433 116.336 12.8564C115.913 12.665 115.553 12.4007 115.256 12.0635C114.96 11.7217 114.735 11.3229 114.58 10.8672C114.425 10.4115 114.347 9.91699 114.347 9.38379ZM115.995 9.22656V9.38379C115.995 9.71647 116.029 10.0309 116.097 10.3271C116.166 10.6234 116.273 10.8831 116.418 11.1064C116.564 11.3298 116.751 11.5052 116.979 11.6328C117.207 11.7604 117.478 11.8242 117.793 11.8242C118.098 11.8242 118.362 11.7604 118.585 11.6328C118.813 11.5052 119 11.3298 119.146 11.1064C119.292 10.8831 119.399 10.6234 119.467 10.3271C119.54 10.0309 119.577 9.71647 119.577 9.38379V9.22656C119.577 8.89844 119.54 8.58854 119.467 8.29688C119.399 8.00065 119.29 7.73861 119.139 7.51074C118.993 7.28288 118.807 7.10514 118.579 6.97754C118.355 6.84538 118.089 6.7793 117.779 6.7793C117.469 6.7793 117.2 6.84538 116.972 6.97754C116.749 7.10514 116.564 7.28288 116.418 7.51074C116.273 7.73861 116.166 8.00065 116.097 8.29688C116.029 8.58854 115.995 8.89844 115.995 9.22656ZM124.532 7.10742V13H122.885V5.60352H124.437L124.532 7.10742ZM124.266 9.02832L123.705 9.02148C123.705 8.51107 123.769 8.03939 123.897 7.60645C124.024 7.1735 124.211 6.79753 124.457 6.47852C124.703 6.15495 125.009 5.90658 125.373 5.7334C125.742 5.55566 126.169 5.4668 126.652 5.4668C126.989 5.4668 127.296 5.51693 127.574 5.61719C127.857 5.71289 128.101 5.86556 128.306 6.0752C128.516 6.28483 128.675 6.55371 128.784 6.88184C128.898 7.20996 128.955 7.60645 128.955 8.07129V13H127.308V8.21484C127.308 7.85482 127.253 7.57227 127.144 7.36719C127.039 7.16211 126.886 7.01628 126.686 6.92969C126.49 6.83854 126.255 6.79297 125.982 6.79297C125.672 6.79297 125.407 6.85221 125.189 6.9707C124.975 7.08919 124.799 7.25098 124.662 7.45605C124.526 7.66113 124.425 7.89811 124.362 8.16699C124.298 8.43587 124.266 8.72298 124.266 9.02832ZM128.853 8.59082L128.08 8.76172C128.08 8.3151 128.142 7.89355 128.265 7.49707C128.392 7.09603 128.577 6.74512 128.819 6.44434C129.065 6.139 129.368 5.89974 129.728 5.72656C130.088 5.55339 130.5 5.4668 130.965 5.4668C131.343 5.4668 131.681 5.51921 131.977 5.62402C132.278 5.72428 132.533 5.88379 132.742 6.10254C132.952 6.32129 133.112 6.60612 133.221 6.95703C133.33 7.30339 133.385 7.72266 133.385 8.21484V13H131.731V8.20801C131.731 7.83431 131.676 7.54492 131.567 7.33984C131.462 7.13477 131.311 6.99349 131.115 6.91602C130.92 6.83398 130.685 6.79297 130.411 6.79297C130.156 6.79297 129.931 6.84082 129.735 6.93652C129.543 7.02767 129.381 7.15755 129.249 7.32617C129.117 7.49023 129.017 7.67936 128.948 7.89355C128.885 8.10775 128.853 8.34017 128.853 8.59082Z" fill="#2196F3"/>
</svg>
